<svg height="512" viewBox="0 0 64 64" width="512" xmlns="http://www.w3.org/2000/svg"><path d="m43.314 4.689a7 7 0 1 0 4.95 2.047 6.981 6.981 0 0 0 -4.95-2.047zm3.536 10.533a5 5 0 1 1 0-7.071 4.984 4.984 0 0 1 0 7.071z"/><path d="m48.264 42.092-1.414 1.414a1 1 0 0 1 -1.414 0l-9.507-9.506h-23.019a6.008 6.008 0 0 1 -4.91 4.91v12.18a6.008 6.008 0 0 1 4.91 4.91h38.18a6.008 6.008 0 0 1 4.91-4.91v-12.18a6.008 6.008 0 0 1 -4.91-4.91h-3.29a15.03 15.03 0 0 1 .761 4.7v2.687a1 1 0 0 1 -.297.705zm-16.264 12.908a10 10 0 1 1 10-10 10.011 10.011 0 0 1 -10 10z"/><path d="m37.694 18.712a9.055 9.055 0 0 1 -.744-.662 9.265 9.265 0 0 1 -.662-.744l-1.456 1.455 1.407 1.407z"/><path d="m35.828 31.071 10.315 10.314.414-.414v-2l-9.315-9.314z"/><path d="m41.192 9.565a3.005 3.005 0 0 0 0 4.243 3.08 3.08 0 0 0 4.244 0 3 3 0 1 0 -4.244-4.243z"/><path d="m32 37a8 8 0 1 0 8 8 8.009 8.009 0 0 0 -8-8zm0 7a2.993 2.993 0 0 1 1 5.816v1.184a1 1 0 0 1 -2 0v-1.184a3 3 0 0 1 -2-2.816 1 1 0 0 1 2 0 1 1 0 1 0 1-1 2.993 2.993 0 0 1 -1-5.816v-1.184a1 1 0 0 1 2 0v1.184a3 3 0 0 1 2 2.816 1 1 0 0 1 -2 0 1 1 0 1 0 -1 1z"/><path d="m37.659 24.416-4.243 4.242 1 1 2.121-2.121a1 1 0 0 1 1.414 0l8.275 8.274a12.921 12.921 0 0 0 -3.475-6.3z"/><path d="m4 60h56v-30h-14.238a14.949 14.949 0 0 1 1.208 2h5.03a1 1 0 0 1 1 1 4 4 0 0 0 4 4 1 1 0 0 1 1 1v14a1 1 0 0 1 -1 1 4 4 0 0 0 -4 4 1 1 0 0 1 -1 1h-40a1 1 0 0 1 -1-1 4 4 0 0 0 -4-4 1 1 0 0 1 -1-1v-14a1 1 0 0 1 1-1 4 4 0 0 0 4-4 1 1 0 0 1 1-1h21.929l-2-2h-27.929z"/><path d="m27.757 23 4.243 4.244 4.245-4.244-4.245-4.243zm6.243 0a2 2 0 1 1 -2-2 2 2 0 0 1 2 2z"/><path d="m20.687 8.688a3 3 0 0 0 -2.121 5.12 3.078 3.078 0 0 0 4.243 0 3 3 0 0 0 -2.121-5.12z"/><path d="m27.05 18.05a8.874 8.874 0 0 1 -.744.662l1.455 1.456 1.407-1.407-1.456-1.455a8.874 8.874 0 0 1 -.662.744z"/><path d="m26.342 24.412-3.588 3.588h7.175z"/><path d="m20.687 4.69a7 7 0 1 0 4.949 2.046 6.983 6.983 0 0 0 -4.949-2.046zm3.535 10.532a5 5 0 1 1 0-7.071 4.988 4.988 0 0 1 0 7.071z"/></svg>