<svg id="Layer_1" enable-background="new 0 0 512 512" height="512" viewBox="0 0 512 512" width="512" xmlns="http://www.w3.org/2000/svg"><path d="m494.705 231.546c-11.214-10.639-26.453-16.287-41.757-15.47-10.924.575-21.43 4.402-30.437 11.105l-117.861 88.327c-.045.034-.09.068-.135.102-28.564 21.787-68.467 21.787-97.031 0-.045-.034-.09-.068-.135-.102l-117.913-88.366c-8.954-6.664-19.46-10.49-30.384-11.065-15.305-.808-30.543 4.831-41.757 15.47-11.153 10.58-17.295 24.97-17.295 40.518v119.935c0 66.168 53.832 120 120 120h272c66.168 0 120-53.832 120-120v-119.935c0-15.548-6.142-29.938-17.295-40.519zm-22.705 160.454c0 44.112-35.888 80-80 80h-272c-44.112 0-80-35.888-80-80v-119.935c0-5.722 2.624-9.412 4.825-11.5 3.046-2.89 7.233-4.564 11.338-4.564.262 0 .524.007.785.021 3.065.162 5.961 1.241 8.552 3.169l117.794 88.276c42.82 32.608 102.592 32.608 145.412 0l117.741-88.236c2.644-1.968 5.539-3.047 8.604-3.209 4.374-.221 8.883 1.47 12.123 4.544 2.201 2.088 4.825 5.778 4.825 11.5v119.934zm-422-235v-37c0-66.168 53.832-120 120-120h174c66.168 0 120 53.832 120 120v37c0 11.046-8.954 20-20 20s-20-8.954-20-20v-37c0-44.112-35.888-80-80-80h-174c-44.112 0-80 35.888-80 80v37c0 11.046-8.954 20-20 20s-20-8.954-20-20zm187.5 106v-2.607c-8.152-1.653-17.235-4.169-26.388-7.807-10.265-4.08-15.278-15.708-11.198-25.973 4.081-10.264 15.712-15.276 25.974-11.198 15.655 6.222 29.932 7.585 34.112 7.585 5.514 0 10-4.486 10-10 0-5.607-5.93-10-13.5-10-32.495 0-57-21.495-57-50 0-23.434 16.208-43.145 38-48.534v-1.466c0-11.046 8.954-20 20-20s20 8.954 20 20v3.68c5.139 1.355 10.84 3.188 17.249 5.68 10.295 4.003 15.395 15.594 11.391 25.889s-15.598 15.395-25.889 11.391c-15.006-5.836-23.647-6.64-30.751-6.64-5.514 0-10 4.486-10 10 0 5.701 7.309 10 17 10 30 0 53.5 21.962 53.5 50 0 21.415-13.537 39.723-32.5 46.832v3.168c0 11.046-8.954 20-20 20s-20-8.954-20-20z"/></svg>