<svg id="Capa_1" enable-background="new 0 0 512 512" height="512" viewBox="0 0 512 512" width="512" xmlns="http://www.w3.org/2000/svg"><g><path d="m151.965 21.622h30v50.25h-30z" transform="matrix(.877 -.48 .48 .877 -1.951 85.862)"/><path d="m319.398 31.747h50.25v30h-50.25z" transform="matrix(.48 -.877 .877 .48 138.169 326.567)"/><path d="m240.744 0h30v37.125h-30z"/><path d="m405.961 73.106h37.125v30h-37.125z" transform="matrix(.707 -.707 .707 .707 62.04 325.989)"/><path d="m73.737 69.544h30v37.125h-30z" transform="matrix(.707 -.707 .707 .707 -36.31 88.552)"/><path d="m63.744 203.333h145v37.667h-145z"/><path d="m302.744 203.333h145v37.667h-145z"/><path d="m238.744 203.333h34v37.667h-34z"/><path d="m238.744 271h34v241h-34z"/><path d="m302.744 271h124.93v241h-124.93z"/><path d="m331.834 173.333c8.502-8.177 13.8-19.66 13.8-32.388-.004-25.214-20.856-44.962-44.945-44.945-24.823 0-44.945 20.122-44.945 44.945 0-24.823-20.122-44.945-44.945-44.945-25.215.005-44.963 20.857-44.945 44.945.003 12.849 5.426 24.27 13.925 32.388z"/><path d="m83.814 271h124.93v241h-124.93z"/></g></svg>