<svg height="512pt" viewBox="0 0 512 512" width="512pt" xmlns="http://www.w3.org/2000/svg"><path d="m256 104.78125c-4.136719 0-7.488281-3.351562-7.488281-7.488281v-11.949219c0-4.132812 3.351562-7.488281 7.488281-7.488281s7.488281 3.355469 7.488281 7.488281v11.949219c0 4.136719-3.351562 7.488281-7.488281 7.488281zm0 0"/><path d="m256 434.144531c-4.136719 0-7.488281-3.351562-7.488281-7.488281v-11.949219c0-4.136719 3.351562-7.488281 7.488281-7.488281s7.488281 3.351562 7.488281 7.488281v11.949219c0 4.136719-3.351562 7.488281-7.488281 7.488281zm0 0"/><path d="m176.652344 126.046875c-2.585938 0-5.105469-1.34375-6.492188-3.746094l-5.972656-10.347656c-2.070312-3.582031-.84375-8.164063 2.738281-10.230469 3.582031-2.070312 8.164063-.84375 10.230469 2.742188l5.976562 10.347656c2.066407 3.582031.839844 8.160156-2.742187 10.230469-1.179687.679687-2.464844 1.003906-3.738281 1.003906zm0 0"/><path d="m118.550781 184.136719c-1.273437 0-2.558593-.324219-3.738281-1.003907l-10.347656-5.976562c-3.582032-2.066406-4.8125-6.644531-2.742188-10.230469 2.066406-3.582031 6.644532-4.808593 10.230469-2.738281l10.347656 5.972656c3.582031 2.066406 4.808594 6.648438 2.742188 10.230469-1.386719 2.402344-3.90625 3.746094-6.492188 3.746094zm0 0"/><path d="m97.292969 263.488281h-11.949219c-4.136719 0-7.488281-3.351562-7.488281-7.488281s3.355469-7.488281 7.488281-7.488281h11.949219c4.136719 0 7.488281 3.351562 7.488281 7.488281s-3.351562 7.488281-7.488281 7.488281zm0 0"/><path d="m426.65625 263.488281h-11.949219c-4.136719 0-7.488281-3.351562-7.488281-7.488281s3.351562-7.488281 7.488281-7.488281h11.949219c4.136719 0 7.488281 3.351562 7.488281 7.488281s-3.351562 7.488281-7.488281 7.488281zm0 0"/><path d="m108.214844 348.816406c-2.585938 0-5.105469-1.339844-6.492188-3.746094-2.070312-3.582031-.839844-8.160156 2.742188-10.230468l10.347656-5.972656c3.578125-2.066407 8.160156-.839844 10.230469 2.742187 2.066406 3.582031.839843 8.160156-2.742188 10.230469l-10.347656 5.972656c-1.179687.683594-2.46875 1.003906-3.738281 1.003906zm0 0"/><path d="m393.449219 184.136719c-2.585938 0-5.105469-1.34375-6.492188-3.746094-2.066406-3.582031-.839843-8.164063 2.742188-10.230469l10.347656-5.972656c3.582031-2.070312 8.164063-.84375 10.230469 2.738281 2.070312 3.582031.839844 8.164063-2.742188 10.230469l-10.347656 5.976562c-1.175781.679688-2.464844 1.003907-3.738281 1.003907zm0 0"/><path d="m170.664062 411.28125c-1.269531 0-2.554687-.320312-3.734374-1.003906-3.582032-2.066406-4.8125-6.648438-2.742188-10.230469l5.972656-10.347656c2.066406-3.582031 6.648438-4.808594 10.230469-2.742188 3.582031 2.070313 4.8125 6.648438 2.742187 10.230469l-5.972656 10.347656c-1.386718 2.402344-3.90625 3.746094-6.496094 3.746094zm0 0"/><path d="m335.347656 126.046875c-1.273437 0-2.558594-.324219-3.738281-1.003906-3.582031-2.070313-4.808594-6.648438-2.742187-10.230469l5.976562-10.347656c2.066406-3.582032 6.644531-4.8125 10.230469-2.742188 3.582031 2.066406 4.808593 6.648438 2.738281 10.230469l-5.972656 10.347656c-1.386719 2.402344-3.90625 3.746094-6.492188 3.746094zm0 0"/><path d="m280.65625 211.378906-15.363281-67.296875c-.992188-4.363281-4.816407-7.414062-9.292969-7.414062s-8.296875 3.050781-9.289062 7.410156l-15.367188 67.296875c-13.757812 7.640625-23.636719 21.457031-25.855469 37.683594l-68.171875 66.222656c-3.390625 3.296875-4.042968 8.417969-1.585937 12.460938 1.875 3.082031 5.140625 4.84375 8.574219 4.84375 1.070312 0 2.15625-.171876 3.21875-.523438l88.015624-29.363281c6.269532 2.753906 13.1875 4.296875 20.460938 4.296875 28.121094 0 51-22.878906 51-51-.003906-19.175782-10.652344-35.910156-26.34375-44.617188zm-24.65625-40.707031 7.980469 34.960937c-2.601563-.414062-5.265625-.628906-7.980469-.628906-2.71875 0-5.378906.222656-7.984375.636719zm-92.832031 140.378906 43.46875-42.226562c2.324219 8.9375 7.015625 16.933593 13.367187 23.265625zm92.832031-19.03125c-19.863281 0-36.019531-16.15625-36.019531-36.019531s16.160156-36.019531 36.019531-36.019531 36.019531 16.15625 36.019531 36.019531-16.15625 36.019531-36.019531 36.019531zm0 0"/><path d="m512 256c0-68.378906-26.628906-132.667969-74.980469-181.019531-48.351562-48.351563-112.640625-74.980469-181.019531-74.980469s-132.667969 26.628906-181.019531 74.980469c-48.351563 48.351562-74.980469 112.640625-74.980469 181.019531s26.628906 132.667969 74.980469 181.019531c48.351562 48.351563 112.640625 74.980469 181.019531 74.980469 30.171875 0 59.542969-5.203125 87.105469-15.152344 16.578125 9.628906 35.828125 15.148438 56.339843 15.148438 62.0625 0 112.554688-50.492188 112.554688-112.554688 0-20.515625-5.519531-39.761718-15.148438-56.34375 9.945313-27.558594 15.148438-56.925781 15.148438-87.097656zm-14.980469 143.441406c0 53.804688-43.773437 97.574219-97.574219 97.574219-53.804687 0-97.574218-43.769531-97.574218-97.574219 0-5.539062.46875-11.097656 1.390625-16.515625.695312-4.078125-2.046875-7.945312-6.125-8.640625-4.074219-.695312-7.945313 2.050782-8.640625 6.125-1.0625 6.246094-1.601563 12.652344-1.601563 19.03125 0 17.9375 4.226563 34.902344 11.71875 49.964844-13.730469 3.027344-27.988281 4.628906-42.613281 4.628906-109.199219 0-198.035156-88.839844-198.035156-198.035156s88.835937-198.035156 198.035156-198.035156c15.117188 0 30.175781 1.707031 44.765625 5.078125 4.027344.929687 8.050781-1.578125 8.980469-5.609375.933594-4.03125-1.582032-8.054688-5.609375-8.984375-15.691407-3.625-31.886719-5.464844-48.136719-5.464844-117.457031 0-213.015625 95.558594-213.015625 213.015625s95.558594 213.015625 213.015625 213.015625c17.417969 0 34.347656-2.121094 50.5625-6.085937 5.96875 8.703124 13.117188 16.53125 21.226562 23.246093-22.945312 7.128907-47.078124 10.847657-71.789062 10.847657-64.378906 0-124.902344-25.074219-170.429688-70.59375-45.519531-45.523438-70.589843-106.050782-70.589843-170.429688s25.070312-124.90625 70.589843-170.429688c45.527344-45.519531 106.050782-70.589843 170.429688-70.589843s124.902344 25.070312 170.429688 70.59375c45.519531 45.519531 70.589843 106.046875 70.589843 170.425781 0 24.710938-3.71875 48.839844-10.84375 71.78125-6.710937-8.105469-14.542969-15.253906-23.242187-21.21875 3.964844-16.214844 6.082031-33.144531 6.082031-50.5625 0-42.800781-12.644531-84.074219-36.5625-119.367188-23.34375-34.4375-55.890625-61.117187-94.128906-77.15625-3.808594-1.597656-8.203125.195313-9.804688 4.011719-1.597656 3.8125.195313 8.203125 4.011719 9.800781 73.8125 30.957032 121.503906 102.675782 121.503906 182.710938 0 14.625-1.621094 28.875-4.644531 42.601562-15.058594-7.488281-32.015625-11.710937-49.945313-11.710937-41.019531 0-78.8125 22.335937-98.632812 58.292969-1.996094 3.621094-.679688 8.175781 2.945312 10.175781 3.617188 1.996094 8.175782.675781 10.171876-2.945313 17.183593-31.175781 49.953124-50.546874 85.515624-50.546874 53.800782 0 97.574219 43.773437 97.574219 97.574218zm0 0"/><path d="m400.550781 478.800781c-4.085937 0-7.425781-3.28125-7.488281-7.375-.0625-4.136719 3.242188-7.539062 7.375-7.605469 4.1875-.0625 8.367188-.53125 12.425781-1.390624 4.039063-.859376 8.023438 1.726562 8.878907 5.773437.859374 4.046875-1.726563 8.023437-5.773438 8.878906-5.003906 1.0625-10.152344 1.640625-15.304688 1.714844-.039062.003906-.078124.003906-.113281.003906zm-33.714843-7.792969c-1.144532 0-2.304688-.265624-3.398438-.820312-4.566406-2.328125-8.933594-5.121094-12.980469-8.296875-3.253906-2.554687-3.820312-7.265625-1.265625-10.519531 2.554688-3.25 7.265625-3.816406 10.519532-1.261719 3.28125 2.578125 6.824218 4.84375 10.53125 6.734375 3.683593 1.878906 5.148437 6.390625 3.269531 10.074219-1.320313 2.597656-3.949219 4.089843-6.675781 4.089843zm78.691406-8.910156c-2.140625 0-4.269532-.914062-5.75-2.683594-2.652344-3.175781-2.230469-7.898437.941406-10.550781 3.199219-2.675781 6.152344-5.675781 8.777344-8.914062 2.605468-3.210938 7.320312-3.707031 10.535156-1.101563 3.214844 2.601563 3.707031 7.320313 1.105469 10.53125-3.234375 3.988282-6.871094 7.683594-10.808594 10.976563-1.402344 1.171875-3.105469 1.742187-4.800781 1.742187zm-111.738282-25.878906c-2.863281 0-5.597656-1.652344-6.839843-4.4375-2.097657-4.691406-3.738281-9.613281-4.882813-14.625-.921875-4.03125 1.601563-8.046875 5.636719-8.964844 4.023437-.921875 8.046875 1.601563 8.96875 5.632813.921875 4.0625 2.253906 8.046875 3.953125 11.847656 1.6875 3.777344-.007812 8.207031-3.785156 9.894531-.992188.441406-2.027344.652344-3.050782.652344zm136.199219-15.398438c-.476562 0-.960937-.042968-1.445312-.140624-4.058594-.792969-6.707031-4.730469-5.910157-8.789063.796876-4.070313 1.199219-8.257813 1.199219-12.449219 0-3.414062-.269531-6.839844-.800781-10.183594-.648438-4.085937 2.136719-7.921874 6.222656-8.570312 4.082032-.652344 7.921875 2.136719 8.570313 6.222656.652343 4.117188.984375 8.332032.988281 12.53125 0 5.15625-.5 10.3125-1.480469 15.328125-.699219 3.574219-3.832031 6.050781-7.34375 6.050781zm-140-32.429687c-.636719 0-1.285156-.082031-1.929687-.253906-3.996094-1.066407-6.375-5.167969-5.3125-9.164063 1.320312-4.964844 3.140625-9.824218 5.40625-14.441406 1.820312-3.714844 6.308594-5.25 10.023437-3.425781 3.710938 1.820312 5.246094 6.308593 3.425781 10.023437-1.835937 3.738282-3.3125 7.675782-4.378906 11.695313-.894531 3.351562-3.921875 5.566406-7.234375 5.566406zm126.914063-24.65625c-2.269532 0-4.515625-1.03125-5.988282-2.984375-2.507812-3.328125-5.351562-6.433594-8.453124-9.21875-3.078126-2.765625-3.332032-7.5-.570313-10.578125 2.765625-3.074219 7.5-3.332031 10.578125-.566406 3.820312 3.433593 7.324219 7.253906 10.410156 11.351562 2.488282 3.304688 1.828125 8-1.476562 10.488281-1.347656 1.015626-2.929688 1.507813-4.5 1.507813zm-99.761719-14.910156c-2.3125 0-4.589844-1.066407-6.054687-3.078125-2.4375-3.34375-1.707032-8.027344 1.636718-10.464844 4.15625-3.03125 8.621094-5.664062 13.273438-7.828125 3.746094-1.746094 8.203125-.121094 9.949218 3.628906 1.746094 3.75.121094 8.207031-3.632812 9.949219-3.769531 1.757812-7.390625 3.894531-10.765625 6.355469-1.328125.96875-2.875 1.4375-4.40625 1.4375zm59.785156-11.628907c-.601562 0-1.210937-.070312-1.820312-.222656-4.027344-1.007812-8.1875-1.625-12.363281-1.832031-4.128907-.210937-7.3125-3.726563-7.101563-7.859375.207031-4.128906 3.722656-7.308594 7.855469-7.101562 5.144531.257812 10.273437 1.019531 15.242187 2.257812 4.011719 1.003906 6.453125 5.070312 5.449219 9.082031-.851562 3.40625-3.90625 5.675781-7.261719 5.675781zm0 0"/></svg>