<svg id="Capa_1" enable-background="new 0 0 512 512" height="512" viewBox="0 0 512 512" width="512" xmlns="http://www.w3.org/2000/svg"><g><path d="m362.286 212.573c-48.492 0-91.665 23.18-119.042 59.035-8.731-6.782-31.575-18.729-41.241-24.423-3.31-1.938-5.068-8.086.532-11.425l19.086-8.566c41.007-18.404 67.504-59.341 67.504-104.289v-32.593h18.125v-90.312h-307.25v90.312h18.125v32.593c1.306 54.914 32.343 92.509 86.591 112.856 3.321 1.484 5.867 7.812.53 11.424-47.858 24.935-84.931 50.891-87.121 115.955v28.423h-18.125v90.312h272.32c25.063 18.902 56.227 30.125 89.966 30.125 82.553 0 149.714-67.161 149.714-149.714 0-82.552-67.161-149.713-149.714-149.713zm-134.854 84.718c-3.754 7.758-6.857 15.887-9.24 24.315-6.549-3.668-13.103-6.905-19.442-9.608v-32.185c6.71 3.879 23.11 12.557 28.682 17.478zm-197.432-267.291h247.25v30.312h-247.25zm229.125 60.312v32.593c0 9.6-1.648 18.948-4.711 27.72h-201.578c-3.063-8.772-4.711-18.12-4.711-27.72v-32.593zm-188.118 90.313h165.237c-10.736 12.706-30.967 21.299-45.992 27.766-12.852 5.767-21.211 18.486-21.476 32.531h-.025v91.977c14.734 4.751 29.723 11.09 44.1 20.413-.177 2.97-.277 5.961-.277 8.974 0 10.017.997 19.805 2.882 29.276h-161.935c18.644-28.257 53.384-48.7 84.979-58.664v-91.977h-.025c-.266-14.045-8.625-26.764-21.475-32.53-15.025-6.467-35.257-15.059-45.993-27.766zm37.493 99.188v32.159c-20.727 8.768-42.433 22.627-59.422 38.625 5.461-33.14 24.613-53.561 59.422-70.784zm-78.5 141.749h194.82c4.684 10.821 10.602 20.988 17.588 30.312h-212.408zm332.286 60.438c-66.01 0-119.713-53.703-119.713-119.714 0-66.01 53.703-119.713 119.713-119.713 66.011 0 119.714 53.703 119.714 119.713 0 66.011-53.703 119.714-119.714 119.714z"/><path d="m370.559 347.286h-16.545c-8.337 0-15.12-6.783-15.12-15.12 0-8.338 6.783-15.121 15.12-15.121h16.166c8.348 0 15.139 6.791 15.139 15.139h30c0-22.472-16.508-41.155-38.032-44.574v-20.22h-30v20.159c-21.699 3.258-38.393 22.024-38.393 44.617 0 24.879 20.241 45.12 45.12 45.12h16.545c8.338 0 15.121 6.783 15.121 15.12s-6.783 15.12-15.121 15.12h-16.839c-8.043 0-14.587-6.544-14.587-14.587h-30c0 22.4 16.607 40.988 38.153 44.116v20.126h30v-20.159c21.7-3.258 38.394-22.023 38.394-44.616 0-24.879-20.242-45.12-45.121-45.12z"/></g></svg>